<?xml version="1.0" encoding="UTF-8"?>
<svg width="793.7007874015749" height="1122.5196850393702" xmlns="http://www.w3.org/2000/svg" xmlns:svg="http://www.w3.org/2000/svg">

 <metadata id="metadata2842">image/svg+xml</metadata>
 <g>
  <title>Layer 1</title>
  <path transform="rotate(31.25994873046875 426.4509887695312,479.5403137207031) " fill="#083f88" id="path2858" d="m604.113632,744.143229c-3.455712,-5.594923 -5.736204,-11.259595 -5.066226,-12.589685c1.587575,-3.150527 11.574705,13.120779 11.44622,18.648428c-0.068343,2.947657 -1.875269,1.232152 -6.379994,-6.058743zm-42.96561,9.321372c0.977164,-2.040579 3.812917,-4.97853 6.301786,-6.528823c7.478551,-4.657813 19.204878,-22.741987 26.924768,-41.51997c7.879357,-19.166447 8.150232,-35.715443 0.868549,-53.08895c-7.976523,-19.031485 -27.029561,-31.244096 -42.685305,-27.36036c-4.011349,0.99529 -5.755221,-0.546703 -11.851464,-10.478901c-8.399238,-13.684241 -7.800753,-14.454534 11.680468,-15.035052c17.908226,-0.53357 38.856064,7.083252 49.143943,17.869458c9.12185,9.563662 18.147683,28.754277 20.445093,43.469901c3.049379,19.533696 -9.498766,48.26751 -32.045392,73.379152c-9.622239,10.717012 -31.791216,25.577523 -28.782446,19.293545zm14.979229,-53.110205c-4.061091,-5.310914 -20.332951,-29.679362 -36.159731,-54.152087c-15.82678,-24.472686 -37.633797,-57.683214 -48.460019,-73.801075l-19.684031,-29.305239l8.81292,-4.560152l8.81296,-4.560152l9.809973,16.950277c5.39548,9.32262 17.103404,30.715697 26.017571,47.540164c8.914207,16.824447 26.34637,48.385575 38.738178,70.135877c22.131081,38.844773 26.705794,50.837518 12.112177,31.752389zm-78.458789,-52.430045c-36.460201,12.737841 -62.921447,7.57324 -82.902066,-16.180063c-8.684773,-10.324605 -14.465469,-33.969867 -12.224477,-50.002527c3.315738,-23.721608 21.738338,-47.862148 54.201968,-71.025285c27.606652,-19.697422 43.432758,-37.871828 48.126605,-55.267898c2.250025,-8.338918 0.638322,-21.634001 -3.404029,-28.079921c-4.246251,-6.771074 -20.216986,-16.730827 -29.536595,-18.419747c-8.784831,-1.592032 -37.167837,0.501042 -41.322053,3.04724c-1.696963,1.040079 -4.737467,-2.214626 -9.849771,-10.543718l-7.395093,-12.048252l11.714223,-5.422144c36.212681,-16.76165 78.293677,-14.111314 99.933126,6.293922c27.044002,25.501553 25.405318,68.961767 -3.92813,104.178683c-6.295011,7.557631 -20.113778,19.630545 -36.59869,31.97485c-20.319679,15.215874 -28.208287,22.400867 -33.887836,30.865794c-13.473745,20.081152 -11.745344,46.357218 3.660939,55.656284c12.335054,7.445212 26.878553,7.112392 54.340001,-1.243939c1.880459,-0.572337 5.312657,3.151735 10.113535,10.973506l7.266906,11.83942l-7.457632,4.361205c-4.101701,2.398656 -13.484462,6.468067 -20.851545,9.041621l0.000614,0.000971zm-47.14223,-143.26848c-3.735957,-3.266472 -35.72402,-51.595569 -82.757199,-125.033595l-43.174422,-67.412959l16.312053,-10.01213l16.312073,-10.012149l12.984707,23.784879c56.320517,103.165545 81.432021,149.681219 88.489639,163.915372l8.218655,16.575639l-7.002409,5.138234c-4.563837,3.348741 -7.831616,4.413186 -9.383098,3.056709zm-76.924423,-56.746778c-37.359356,16.389132 -72.591169,18.761818 -99.284958,6.686388c-5.252357,-2.375994 -14.997711,-9.952008 -21.656326,-16.83556c-20.524529,-21.217743 -26.128901,-41.216409 -19.609705,-69.975281c8.818269,-38.90125 28.266111,-58.465908 112.463065,-113.138768c20.193234,-13.11236 37.994806,-25.314848 39.559085,-27.116604c1.564239,-1.801815 9.933288,-4.017669 18.597835,-4.924172c8.664587,-0.906523 19.000642,-2.797679 22.969084,-4.20263c10.303548,-3.647785 11.854396,1.320701 2.796511,8.959174c-11.492337,9.691413 -12.451197,13.228146 -3.427206,12.641646l7.50878,-0.488027l-4.398269,5.737215c-8.140724,10.618994 -19.029663,17.778909 -37.735341,24.81238c-24.747721,9.305365 -77.747766,39.18932 -91.292627,51.475108c-19.252639,17.463066 -32.358303,45.244656 -30.579923,64.823835c1.464677,16.125606 20.263855,33.993539 40.194059,38.202925c15.802453,3.337627 37.305117,-0.706328 54.836883,-10.313056l15.757426,-8.634417l8.03294,14.371572l8.03294,14.371552l-8.720588,5.605818c-4.796381,3.083135 -11.115976,6.656614 -14.043665,7.940945l0,-0.00004zm32.579952,-215.504919c-0.662648,-1.079659 -2.477716,-1.181698 -4.033477,-0.226819c-1.555761,0.954918 -2.832405,2.95465 -2.836981,4.443851c-0.003962,1.489221 1.810491,1.591279 4.033477,0.226819c2.223025,-1.36446 3.499689,-3.364192 2.836981,-4.443851zm25.882252,-0.43159c0.001981,-1.162918 5.603045,-5.272622 12.445967,-9.132587c6.842962,-3.859985 13.021355,-8.168536 13.729783,-9.574636c0.708468,-1.40606 2.059358,-1.29996 3.001975,0.235753c1.356675,2.210386 -1.505524,4.646403 -13.734062,11.689125c-8.496364,4.89325 -15.446001,7.945303 -15.443663,6.782345zm-135.05036,36.397643c-3.91248,-4.319942 -8.058495,-6.06217 -14.473195,-6.08196c-20.478452,-0.062994 -25.208709,-22.595456 -8.481289,-40.400732c14.67125,-15.616581 30.760546,-21.179353 45.50624,-15.733437c11.272035,4.163011 15.316605,13.038193 12.894396,28.294775c-1.143386,7.20201 -0.82887,14.52468 0.698979,16.272633c2.498338,2.858178 1.09515,4.210871 -13.942022,13.440505l-16.719892,10.262502l-5.483217,-6.054286z"/>
 </g>
</svg>